<svg width="207" height="60" viewBox="0 0 207 60" fill="none" xmlns="http://www.w3.org/2000/svg">
<rect width="207" height="60" fill="white"/>
<path d="M41.0403 29.624C41.0403 27.992 41.4163 26.528 42.1683 25.232C42.9363 23.936 43.9683 22.928 45.2643 22.208C46.5763 21.472 48.0083 21.104 49.5603 21.104C51.3363 21.104 52.9123 21.544 54.2883 22.424C55.6803 23.288 56.6883 24.52 57.3123 26.12H54.0243C53.5923 25.24 52.9923 24.584 52.2243 24.152C51.4563 23.72 50.5683 23.504 49.5603 23.504C48.4563 23.504 47.4723 23.752 46.6083 24.248C45.7443 24.744 45.0643 25.456 44.5683 26.384C44.0883 27.312 43.8483 28.392 43.8483 29.624C43.8483 30.856 44.0883 31.936 44.5683 32.864C45.0643 33.792 45.7443 34.512 46.6083 35.024C47.4723 35.52 48.4563 35.768 49.5603 35.768C50.5683 35.768 51.4563 35.552 52.2243 35.12C52.9923 34.688 53.5923 34.032 54.0243 33.152H57.3123C56.6883 34.752 55.6803 35.984 54.2883 36.848C52.9123 37.712 51.3363 38.144 49.5603 38.144C47.9923 38.144 46.5603 37.784 45.2643 37.064C43.9683 36.328 42.9363 35.312 42.1683 34.016C41.4163 32.72 41.0403 31.256 41.0403 29.624ZM66.2508 38.216C65.0028 38.216 63.8748 37.936 62.8668 37.376C61.8588 36.8 61.0668 36 60.4908 34.976C59.9148 33.936 59.6268 32.736 59.6268 31.376C59.6268 30.032 59.9228 28.84 60.5148 27.8C61.1068 26.76 61.9148 25.96 62.9388 25.4C63.9628 24.84 65.1068 24.56 66.3708 24.56C67.6348 24.56 68.7788 24.84 69.8028 25.4C70.8268 25.96 71.6348 26.76 72.2268 27.8C72.8188 28.84 73.1148 30.032 73.1148 31.376C73.1148 32.72 72.8108 33.912 72.2028 34.952C71.5948 35.992 70.7628 36.8 69.7068 37.376C68.6668 37.936 67.5148 38.216 66.2508 38.216ZM66.2508 35.84C66.9548 35.84 67.6108 35.672 68.2188 35.336C68.8428 35 69.3468 34.496 69.7308 33.824C70.1148 33.152 70.3068 32.336 70.3068 31.376C70.3068 30.416 70.1228 29.608 69.7548 28.952C69.3868 28.28 68.8988 27.776 68.2908 27.44C67.6828 27.104 67.0268 26.936 66.3228 26.936C65.6188 26.936 64.9628 27.104 64.3548 27.44C63.7628 27.776 63.2908 28.28 62.9388 28.952C62.5868 29.608 62.4108 30.416 62.4108 31.376C62.4108 32.8 62.7708 33.904 63.4908 34.688C64.2268 35.456 65.1468 35.84 66.2508 35.84ZM82.4915 24.56C83.5315 24.56 84.4595 24.776 85.2755 25.208C86.1075 25.64 86.7555 26.28 87.2195 27.128C87.6835 27.976 87.9155 29 87.9155 30.2V38H85.2035V30.608C85.2035 29.424 84.9075 28.52 84.3155 27.896C83.7235 27.256 82.9155 26.936 81.8915 26.936C80.8675 26.936 80.0515 27.256 79.4435 27.896C78.8515 28.52 78.5555 29.424 78.5555 30.608V38H75.8195V24.776H78.5555V26.288C79.0035 25.744 79.5715 25.32 80.2595 25.016C80.9635 24.712 81.7075 24.56 82.4915 24.56ZM94.5975 27.008V34.328C94.5975 34.824 94.7095 35.184 94.9335 35.408C95.1735 35.616 95.5735 35.72 96.1335 35.72H97.8135V38H95.6535C94.4215 38 93.4775 37.712 92.8215 37.136C92.1655 36.56 91.8375 35.624 91.8375 34.328V27.008H90.2775V24.776H91.8375V21.488H94.5975V24.776H97.8135V27.008H94.5975ZM101.727 23.024C101.231 23.024 100.815 22.856 100.479 22.52C100.143 22.184 99.9752 21.768 99.9752 21.272C99.9752 20.776 100.143 20.36 100.479 20.024C100.815 19.688 101.231 19.52 101.727 19.52C102.207 19.52 102.615 19.688 102.951 20.024C103.287 20.36 103.455 20.776 103.455 21.272C103.455 21.768 103.287 22.184 102.951 22.52C102.615 22.856 102.207 23.024 101.727 23.024ZM103.071 24.776V38H100.335V24.776H103.071ZM113.335 24.56C114.375 24.56 115.303 24.776 116.119 25.208C116.951 25.64 117.599 26.28 118.063 27.128C118.527 27.976 118.759 29 118.759 30.2V38H116.047V30.608C116.047 29.424 115.751 28.52 115.159 27.896C114.567 27.256 113.759 26.936 112.735 26.936C111.711 26.936 110.895 27.256 110.287 27.896C109.695 28.52 109.399 29.424 109.399 30.608V38H106.663V24.776H109.399V26.288C109.847 25.744 110.415 25.32 111.103 25.016C111.807 24.712 112.551 24.56 113.335 24.56ZM134.225 24.776V38H131.489V36.44C131.057 36.984 130.489 37.416 129.785 37.736C129.097 38.04 128.361 38.192 127.577 38.192C126.537 38.192 125.601 37.976 124.769 37.544C123.953 37.112 123.305 36.472 122.825 35.624C122.361 34.776 122.129 33.752 122.129 32.552V24.776H124.841V32.144C124.841 33.328 125.137 34.24 125.729 34.88C126.321 35.504 127.129 35.816 128.153 35.816C129.177 35.816 129.985 35.504 130.577 34.88C131.185 34.24 131.489 33.328 131.489 32.144V24.776H134.225ZM149.955 31.064C149.955 31.56 149.923 32.008 149.859 32.408H139.755C139.835 33.464 140.227 34.312 140.931 34.952C141.635 35.592 142.499 35.912 143.523 35.912C144.995 35.912 146.035 35.296 146.643 34.064H149.595C149.195 35.28 148.467 36.28 147.411 37.064C146.371 37.832 145.075 38.216 143.523 38.216C142.259 38.216 141.123 37.936 140.115 37.376C139.123 36.8 138.339 36 137.763 34.976C137.203 33.936 136.923 32.736 136.923 31.376C136.923 30.016 137.195 28.824 137.739 27.8C138.299 26.76 139.075 25.96 140.067 25.4C141.075 24.84 142.227 24.56 143.523 24.56C144.771 24.56 145.883 24.832 146.859 25.376C147.835 25.92 148.595 26.688 149.139 27.68C149.683 28.656 149.955 29.784 149.955 31.064ZM147.099 30.2C147.083 29.192 146.723 28.384 146.019 27.776C145.315 27.168 144.443 26.864 143.403 26.864C142.459 26.864 141.651 27.168 140.979 27.776C140.307 28.368 139.907 29.176 139.779 30.2H147.099Z" fill="#131415"/>
<path d="M167 36L173 30L167 24" stroke="#131415" stroke-width="2"/>
</svg>
