<svg width="951" height="428" viewBox="0 0 951 428" fill="none" xmlns="http://www.w3.org/2000/svg">
<g clip-path="url(#clip0_990_2066)">
<path d="M78.2474 390.969C81.9297 392.263 85.8833 392.587 89.7273 391.91C93.5713 391.233 97.1761 389.577 100.194 387.103C107.881 380.651 110.294 370.022 112.252 360.179L118.052 331.067L105.909 339.429C97.1765 345.442 88.2474 351.648 82.2005 360.358C76.1535 369.068 73.5144 380.958 78.3724 390.382" fill="#E6E6E6"/>
<path d="M79.2855 426.215C78.0565 417.262 76.7925 408.195 77.6545 399.146C78.4205 391.11 80.8715 383.261 85.8635 376.825C88.513 373.415 91.737 370.493 95.3905 368.192C96.3435 367.592 97.2195 369.101 96.2715 369.699C89.9502 373.694 85.0609 379.593 82.3085 386.546C79.2685 394.278 78.7805 402.707 79.3085 410.92C79.6255 415.887 80.2965 420.82 80.9735 425.75C81.028 425.973 80.9952 426.208 80.8818 426.408C80.7684 426.607 80.583 426.756 80.3635 426.824C80.1402 426.884 79.9022 426.854 79.7011 426.739C79.5 426.625 79.3521 426.436 79.2895 426.214L79.2855 426.215Z" fill="#F2F2F2"/>
<path d="M902.324 379.578C898.401 380.957 894.188 381.302 890.093 380.581C885.998 379.859 882.157 378.095 878.941 375.459C870.751 368.584 868.183 357.263 866.094 346.777L859.915 315.76L872.852 324.669C882.157 331.075 891.671 337.687 898.113 346.966C904.554 356.246 907.365 368.914 902.19 378.954" fill="#E6E6E6"/>
<path d="M900.326 419.288C901.955 407.424 903.63 395.407 902.485 383.416C901.47 372.767 898.221 362.368 891.607 353.837C888.096 349.318 883.823 345.447 878.982 342.397C877.72 341.6 876.558 343.6 877.815 344.394C886.192 349.688 892.671 357.505 896.319 366.719C900.348 376.965 900.995 388.135 900.301 399.02C899.881 405.602 898.99 412.141 898.095 418.672C898.024 418.967 898.068 419.279 898.218 419.543C898.368 419.807 898.613 420.004 898.903 420.095C899.199 420.174 899.514 420.134 899.78 419.983C900.046 419.831 900.242 419.581 900.325 419.287L900.326 419.288Z" fill="#F2F2F2"/>
<path d="M888.605 400.252C886.923 402.809 884.61 404.891 881.89 406.295C879.169 407.7 876.133 408.38 873.074 408.27C865.209 407.897 858.656 402.41 852.757 397.2L835.305 381.791L846.854 381.238C855.161 380.84 863.681 380.467 871.593 383.032C879.504 385.596 886.8 391.758 888.247 399.947" fill="#E6E6E6"/>
<path d="M904.929 426.108C897.089 412.236 887.997 396.82 871.748 391.892C867.231 390.527 862.494 390.038 857.793 390.451C856.311 390.579 856.681 392.863 858.16 392.736C866.04 392.081 873.906 394.162 880.432 398.628C886.711 402.902 891.601 408.845 895.739 415.147C898.274 419.007 900.545 423.031 902.816 427.05C903.541 428.334 905.663 427.407 904.929 426.108Z" fill="#F2F2F2"/>
<path d="M682.402 258.268H289.402V174.268H682.402V258.268Z" fill="white"/>
<path d="M340.326 237.606C352.111 237.606 361.664 228.053 361.664 216.268C361.664 204.483 352.111 194.929 340.326 194.929C328.541 194.929 318.987 204.483 318.987 216.268C318.987 228.053 328.541 237.606 340.326 237.606Z" fill="#536DFE"/>
<path d="M389.607 202.042C388.664 202.042 387.76 202.417 387.093 203.084C386.426 203.751 386.051 204.655 386.051 205.598C386.051 206.542 386.426 207.446 387.093 208.113C387.76 208.78 388.664 209.155 389.607 209.155H649.267C650.209 209.153 651.111 208.777 651.776 208.11C652.441 207.443 652.815 206.54 652.815 205.598C652.815 204.657 652.441 203.753 651.776 203.087C651.111 202.42 650.209 202.044 649.267 202.042H389.607Z" fill="#536DFE"/>
<path d="M389.607 223.38C388.664 223.378 387.759 223.751 387.091 224.417C386.422 225.082 386.046 225.986 386.044 226.929C386.042 227.872 386.414 228.778 387.08 229.446C387.745 230.115 388.649 230.491 389.592 230.493H553.752C554.219 230.494 554.682 230.403 555.115 230.224C555.547 230.046 555.94 229.784 556.27 229.454C556.601 229.123 556.864 228.731 557.043 228.299C557.222 227.867 557.314 227.404 557.314 226.937C557.314 226.469 557.222 226.006 557.043 225.574C556.864 225.143 556.601 224.75 556.27 224.42C555.94 224.09 555.547 223.828 555.115 223.649C554.682 223.471 554.219 223.38 553.752 223.38H389.607Z" fill="#536DFE"/>
<path d="M682.402 258.268H289.402V174.268H682.402V258.268ZM295.402 252.268H676.402V180.268H295.402V252.268Z" fill="#CCCCCC"/>
<path d="M793.073 237.402C792.692 236.279 792.561 235.086 792.691 233.907C792.82 232.728 793.206 231.591 793.822 230.578C794.439 229.564 795.27 228.698 796.257 228.04C797.244 227.382 798.363 226.949 799.536 226.771L803.984 208.771L815.582 208.806L808.943 234.137C809.112 236.127 808.545 238.11 807.35 239.71C806.155 241.31 804.415 242.416 802.459 242.819C800.502 243.221 798.467 242.892 796.737 241.894C795.007 240.895 793.704 239.297 793.073 237.402Z" fill="#FFB7B7"/>
<path d="M812.655 225.754L794.892 224.523L803.495 173.256L798.02 116.805L815.976 109.442L827.95 172.132L827.918 172.246L812.655 225.754Z" fill="#3F3D56"/>
<path d="M675.308 219.746C675.287 218.56 675.527 217.384 676.01 216.3C676.493 215.217 677.208 214.253 678.104 213.475C679 212.698 680.056 212.127 681.196 211.802C682.337 211.477 683.535 211.405 684.706 211.593L694.436 195.81L705.47 199.383L691.417 221.48C690.971 223.426 689.826 225.142 688.199 226.301C686.573 227.459 684.578 227.982 682.592 227.768C680.607 227.554 678.768 226.619 677.426 225.141C676.083 223.662 675.33 221.743 675.308 219.746Z" fill="#FFB7B7"/>
<path d="M730.086 417.104H720.637L716.142 380.657L730.088 380.658L730.086 417.104Z" fill="#FFB7B7"/>
<path d="M732.496 426.263L702.028 426.262V425.877C702.028 422.732 703.278 419.716 705.502 417.492C707.726 415.268 710.742 414.018 713.887 414.018H713.888L732.496 414.019L732.496 426.263Z" fill="#2F2E41"/>
<path d="M796.006 417.104H786.557L782.062 380.657L796.008 380.658L796.006 417.104Z" fill="#FFB7B7"/>
<path d="M798.416 426.263L767.948 426.262V425.877C767.948 422.732 769.198 419.716 771.422 417.492C773.646 415.268 776.662 414.018 779.807 414.018H779.808L798.416 414.019L798.416 426.263Z" fill="#2F2E41"/>
<path d="M787.02 74.8531C799.418 74.8531 809.469 64.8027 809.469 52.4048C809.469 40.007 799.418 29.9565 787.02 29.9565C774.622 29.9565 764.572 40.007 764.572 52.4048C764.572 64.8027 774.622 74.8531 787.02 74.8531Z" fill="#FFB8B8"/>
<path d="M779.438 51.1739C776.084 52.577 772.328 52.681 768.901 51.4656C765.474 50.2503 762.623 47.8027 760.902 44.5998C759.181 41.3969 758.715 37.668 759.593 34.1399C760.472 30.6117 762.632 27.537 765.654 25.5149C771.629 21.5165 780.552 22.8399 786.344 27.4771C790.249 25.7008 794.618 25.2132 798.819 26.085C803.02 26.9567 806.834 29.1425 809.71 32.3261C815.301 38.7943 815.913 49.0617 811.838 56.6021C810.056 60.533 809.265 64.8411 809.535 69.1487C809.805 73.4563 811.127 77.6319 813.386 81.3098C811.632 81.2383 807.773 80.9135 802.945 80.4969C801.548 80.3764 800.943 76.2721 799.411 76.1401C798.06 76.0237 795.793 79.8803 794.377 79.7607C783.89 78.8746 772.15 77.9745 766.83 78.1506C770.839 68.7653 774.848 59.3799 779.438 51.1739Z" fill="#2F2E41"/>
<path d="M804.236 210.55C804.236 210.55 811.531 218.071 807.077 256.912L803.999 339.386L798.554 412.413L781.034 411.248L765.645 243.167L744.101 304.672L732.5 406.355L715.691 405.19L712.821 304.073L720.189 225.926L804.236 210.55Z" fill="#2F2E41"/>
<path d="M732.028 230.631C723.064 230.631 719.454 229.554 719.19 229.471L718.774 229.34L718.847 228.91C718.907 228.557 724.929 193.446 733.192 175.012L739.003 100.257C739.169 98.0358 740.083 95.9366 741.595 94.3013C743.107 92.666 745.129 91.591 747.33 91.2515L747.408 91.7456L747.33 91.2515L762.11 88.9312L771.151 80.9702L792.809 82.168L794.719 91.3296C797.309 92.0537 814.403 97.2925 816.095 109.837L816.116 109.995L816.043 110.135L784.727 170.379C787.373 172.991 808.287 194.475 809.707 221.94L809.741 222.601L809.096 222.453C809.036 222.441 802.343 221.169 767.149 227.119C750.872 229.87 739.56 230.631 732.028 230.631Z" fill="#3F3D56"/>
<path d="M697.311 219.382L684.546 209.552L713.036 152.551L739.534 96.6845C739.905 95.9038 740.505 95.2551 741.254 94.8254C742.004 94.3957 742.867 94.2056 743.728 94.2807C744.588 94.3557 745.406 94.6923 746.069 95.2452C746.733 95.7982 747.212 96.541 747.442 97.3739L754 121.168L733.49 174.53L697.311 219.382Z" fill="#3F3D56"/>
<path d="M950 428H569C568.735 428 568.48 427.895 568.293 427.707C568.105 427.52 568 427.265 568 427C568 426.735 568.105 426.48 568.293 426.293C568.48 426.105 568.735 426 569 426H950C950.265 426 950.52 426.105 950.707 426.293C950.895 426.48 951 426.735 951 427C951 427.265 950.895 427.52 950.707 427.707C950.52 427.895 950.265 428 950 428Z" fill="#CBCBCB"/>
<path d="M510.842 126H456.842V72H483.842V74H458.842V124H508.842V99H510.842V126Z" fill="#3F3D56"/>
<path d="M482.829 110.048L469.711 94.985L471.973 93.015L482.855 105.51L512.722 72.002L514.961 73.998L482.829 110.048Z" fill="#536DFE"/>
<path d="M175.702 67.2399L176.965 60.9273C176.965 60.9273 195.535 54.6147 197.613 67.2399H175.702Z" fill="#E6E6E6"/>
<path d="M211.342 414.822H223.516L229.308 367.864H211.34L211.342 414.822Z" fill="#9F616A"/>
<path d="M208.236 410.847L232.212 410.846H232.213C236.265 410.847 240.151 412.456 243.017 415.322C245.882 418.187 247.492 422.073 247.492 426.125V426.622L208.237 426.623L208.236 410.847Z" fill="#2F2E41"/>
<path d="M152.654 414.822H164.828L170.62 367.864H152.652L152.654 414.822Z" fill="#9F616A"/>
<path d="M149.548 410.847L173.524 410.846H173.525C177.577 410.847 181.463 412.456 184.329 415.322C187.194 418.187 188.804 422.073 188.804 426.125V426.622L149.549 426.623L149.548 410.847Z" fill="#2F2E41"/>
<path d="M158.027 93.7532L144.139 92.4902L135.302 134.153L136.564 172.029L150.452 222.53L169.39 211.167L159.29 159.404L158.027 93.7532Z" fill="#3F3D56"/>
<path d="M149.237 218.111L152.346 244.624L155.265 306.488L148.558 398.676L172.546 397.389L184.303 301.437L191.484 257.249L201.584 307.75L207.897 402.439L232.516 400.466V307.417L233.147 239.574L224.31 213.061L149.237 218.111Z" fill="#2F2E41"/>
<path d="M200.953 68.5021C200.953 68.5021 192.115 55.8769 175.702 64.7146L168.127 74.8147L144.139 92.49L149.19 151.829L142.877 226.317L232.516 225.055L217.366 150.566V71.0271L200.953 68.5021Z" fill="#3F3D56"/>
<path opacity="0.25" d="M152.346 113.446L145.107 200.001L154.24 153.091L152.346 113.446Z" fill="black"/>
<path d="M303.028 186.017C301.739 186.455 300.37 186.605 299.017 186.457C297.663 186.308 296.359 185.865 295.196 185.158C294.033 184.451 293.039 183.497 292.284 182.364C291.529 181.231 291.032 179.947 290.827 178.601L270.17 173.496L270.211 160.186L299.281 167.805C301.565 167.611 303.84 168.261 305.677 169.633C307.513 171.005 308.782 173.002 309.244 175.247C309.706 177.492 309.328 179.828 308.182 181.813C307.037 183.798 305.203 185.294 303.028 186.017H303.028Z" fill="#9F616A"/>
<path d="M281.427 160.027L277.953 179.926L286.659 181.446L290.133 161.547L281.427 160.027Z" fill="#E6E6E6"/>
<path d="M186.903 53.9189C200.905 53.9189 212.255 42.5682 212.255 28.5664C212.255 14.5646 200.905 3.21387 186.903 3.21387C172.901 3.21387 161.55 14.5646 161.55 28.5664C161.55 42.5682 172.901 53.9189 186.903 53.9189Z" fill="#9F616A"/>
<path d="M188.797 50.9308C182.594 52.42 176.059 51.5507 170.462 48.492C164.864 45.4332 160.603 40.4033 158.506 34.3789C156.409 28.3546 156.626 21.7659 159.114 15.8925C161.602 10.019 166.185 5.28002 171.972 2.5958C176.428 0.606943 181.301 -0.267587 186.171 0.0477008C193.753 0.446341 201.122 3.24875 208.712 3.04224L209.812 4.81056L213.958 3.80507L214.847 7.0967L215.939 7.0589C217.895 10.6942 214.748 15.8988 210.62 15.8548C208.996 15.6676 207.396 15.319 205.842 14.814C204.244 14.4715 202.362 14.5569 201.26 15.7639C199.827 17.3325 200.451 19.7804 200.75 21.8833C201.048 23.9863 200.302 26.819 198.179 26.8876C197.095 26.9227 196.063 26.145 194.998 26.3495C193.757 26.5876 193.129 28.0864 193.31 29.3371C193.618 30.5644 194.119 31.7347 194.795 32.8039C196.231 35.9339 196.459 39.4838 195.437 42.7719C194.414 46.0599 192.213 48.8543 189.256 50.6184" fill="#2F2E41"/>
<path d="M211.34 75.9057L217.366 71.0275C217.366 71.0275 229.527 70.182 229.308 83.0748L248.768 143.946L286.099 157.171L281.069 183.161L228.25 163.04L201.421 118.571L211.34 75.9057Z" fill="#3F3D56"/>
<path d="M382 428H1C0.734784 428 0.480429 427.895 0.292892 427.707C0.105356 427.52 0 427.265 0 427C0 426.735 0.105356 426.48 0.292892 426.293C0.480429 426.105 0.734784 426 1 426H382C382.265 426 382.52 426.105 382.707 426.293C382.895 426.48 383 426.735 383 427C383 427.265 382.895 427.52 382.707 427.707C382.52 427.895 382.265 428 382 428Z" fill="#CBCBCB"/>
</g>
<defs>
<clipPath id="clip0_990_2066">
<rect width="951" height="428" fill="white"/>
</clipPath>
</defs>
</svg>
