<svg width="783" height="666" viewBox="0 0 783 666" fill="none" xmlns="http://www.w3.org/2000/svg">
<g clip-path="url(#clip0_990_2108)">
<path d="M687.869 640.844C696.424 657.472 715.12 664.901 715.12 664.901C715.12 664.901 719.946 645.371 711.391 628.743C702.836 612.114 684.14 604.685 684.14 604.685C684.14 604.685 679.314 624.216 687.869 640.844Z" fill="#F1F1F1"/>
<path d="M694.073 635.548C709.907 645.497 715.706 664.761 715.706 664.761C715.706 664.761 695.834 667.895 680 657.947C664.166 647.998 658.367 628.734 658.367 628.734C658.367 628.734 678.239 625.6 694.073 635.548Z" fill="#F1F1F1"/>
<path d="M471.576 653.39H460.472L455.19 610.561L471.578 610.562L471.576 653.39Z" fill="#FFB7B7"/>
<path d="M474.407 664.153L438.604 664.152V663.699C438.605 660.003 440.073 656.459 442.686 653.846C445.3 651.232 448.844 649.764 452.54 649.764H452.541L474.408 649.765L474.407 664.153Z" fill="#2F2E41"/>
<path d="M540.409 653.39H529.305L524.023 610.561L540.411 610.562L540.409 653.39Z" fill="#FFB7B7"/>
<path d="M543.24 664.153L507.438 664.152V663.699C507.438 660.003 508.906 656.459 511.519 653.846C514.133 651.232 517.677 649.764 521.373 649.764H521.374L543.241 649.765L543.24 664.153Z" fill="#2F2E41"/>
<path d="M508.167 412.149L486.32 368.185L491.946 331.719L465.681 324.473L462.964 373.381L497.025 419.67C496.781 421.404 497.044 423.171 497.783 424.758C498.522 426.345 499.706 427.684 501.191 428.612C502.675 429.54 504.397 430.018 506.148 429.987C507.899 429.956 509.603 429.419 511.054 428.439C512.505 427.459 513.641 426.08 514.324 424.468C515.007 422.856 515.208 421.08 514.903 419.356C514.597 417.632 513.798 416.034 512.603 414.754C511.407 413.475 509.866 412.57 508.167 412.149V412.149Z" fill="#FFB7B7"/>
<path d="M555.427 412.149L577.274 368.185L571.648 331.719L597.913 324.473L600.63 373.381L566.569 419.67C566.813 421.404 566.55 423.171 565.811 424.758C565.072 426.345 563.888 427.684 562.403 428.612C560.918 429.54 559.197 430.018 557.446 429.987C555.695 429.956 553.991 429.419 552.54 428.439C551.089 427.459 549.953 426.08 549.27 424.468C548.587 422.856 548.386 421.08 548.691 419.356C548.997 417.632 549.796 416.034 550.991 414.754C552.187 413.475 553.728 412.57 555.427 412.149V412.149Z" fill="#FFB7B7"/>
<path d="M540.845 261.896C554.042 261.896 564.741 251.198 564.741 238.001C564.741 224.804 554.042 214.105 540.845 214.105C527.648 214.105 516.95 224.804 516.95 238.001C516.95 251.198 527.648 261.896 540.845 261.896Z" fill="#FFB9B9"/>
<path d="M517.131 237.873C517.131 237.873 514.538 233.984 515.536 229.796C516.131 227.418 516.367 224.964 516.234 222.517C517.349 218.889 518.749 215.354 520.422 211.947C522.516 208.158 521.518 206.562 528.1 205.366C534.681 204.169 531.989 195.594 549.339 204.867C549.924 205.684 550.739 206.31 551.679 206.665C552.62 207.02 553.644 207.088 554.624 206.861C558.213 206.163 559.51 211.149 559.51 211.149C559.51 211.149 561.903 209.753 562.8 211.747C563.698 213.742 570.097 210.551 570.097 224.012C570.097 237.473 562.815 249.498 562.815 249.498C562.815 249.498 557.701 265.632 545.835 263.339C533.969 261.045 532.25 262.433 524.098 247.036C522.43 251.849 519.868 233.576 517.131 237.873Z" fill="#2F2E41"/>
<path d="M488.323 392.401L485.553 403.264C485.553 403.264 472.504 409.57 467.281 466.196L460.247 551.102L449.51 640.083L471.828 641.814L487.303 585.44L520.736 466.906L527.076 556.579L520.023 637.846L543.571 638.751L559.874 548.181C559.874 548.181 584.848 415.52 568.738 411.659L567.119 397.835L488.323 392.401Z" fill="#2F2E41"/>
<path d="M483.156 290.295L521.598 269.111L554.223 270.852L593.192 293.918L576.95 395.35C576.95 395.35 586.26 405.758 558.123 402.702C529.985 399.646 484.508 397.168 484.508 397.168C484.508 397.168 480.85 389.91 488.662 388.891C496.475 387.872 489.942 388.111 489.942 388.111C489.942 388.111 485.221 372.952 489.942 369.997L492.226 338.864L483.156 290.295Z" fill="#3F3D56"/>
<path d="M493.758 291.868L483.157 290.295L460.699 330.36L497.188 346.448L493.758 291.868Z" fill="#3F3D56"/>
<path d="M580.705 299.114L593.192 293.918L605.611 350.286L571.908 356.669L580.705 299.114Z" fill="#3F3D56"/>
<path d="M292.406 665.606H781.406C781.671 665.606 781.925 665.501 782.113 665.314C782.3 665.126 782.406 664.872 782.406 664.606C782.406 664.341 782.3 664.087 782.113 663.899C781.925 663.712 781.671 663.606 781.406 663.606H292.406C292.14 663.606 291.886 663.712 291.698 663.899C291.511 664.087 291.406 664.341 291.406 664.606C291.406 664.872 291.511 665.126 291.698 665.314C291.886 665.501 292.14 665.606 292.406 665.606Z" fill="#CBCBCB"/>
<path d="M240 397.606H113V461.606H240V397.606Z" fill="white"/>
<path d="M224.995 413.99H128.005V417.277H224.995V413.99Z" fill="#536DFE"/>
<path d="M224.995 427.962H128.005V431.25H224.995V427.962Z" fill="#536DFE"/>
<path d="M224.995 441.936H128.005V445.223H224.995V441.936Z" fill="#536DFE"/>
<path d="M241 462.606H112V396.606H241V462.606ZM114 460.606H239V398.606H114V460.606Z" fill="#3F3D56"/>
<path d="M148.737 318.115C121.85 318.137 95.4907 310.654 72.6257 296.508L72.0449 296.148L72.4041 295.567L148.356 172.645H293.523V173.329C293.523 253.164 228.572 318.115 148.737 318.115Z" fill="#536DFE"/>
<path d="M55.6003 265.922L55.1337 265.633C29.5077 249.788 11.0338 224.614 3.60526 195.415C-3.82326 166.216 0.373814 135.274 15.312 109.109L15.5844 108.633L116.985 166.576L55.6003 265.922Z" fill="#F1F1F1"/>
<path d="M293.523 153.251H147.886L179.282 11.019L179.949 11.1656C212.15 18.2828 240.958 36.1765 261.609 61.8881C282.261 87.5997 293.519 119.589 293.523 152.568V153.251Z" fill="#536DFE"/>
<path d="M124.69 130.85L26.012 74.4632L26.2772 74.0002C38.2403 53.1024 56.564 36.5706 78.5785 26.8137C100.593 17.0568 125.148 14.5845 148.666 19.7572L149.187 19.8718L124.69 130.85Z" fill="#F1F1F1"/>
<path d="M494.004 1H367.004V65H494.004V1Z" fill="white"/>
<path d="M478.999 17.3833H382.009V20.6711H478.999V17.3833Z" fill="#536DFE"/>
<path d="M478.999 31.3564H382.009V34.6443H478.999V31.3564Z" fill="#536DFE"/>
<path d="M478.999 45.3296H382.009V48.6174H478.999V45.3296Z" fill="#536DFE"/>
<path d="M495.004 66H366.004V0H495.004V66ZM368.004 64H493.004V2H368.004V64Z" fill="#3F3D56"/>
<path d="M177.772 231.969H175.772V396.606H177.772V231.969Z" fill="#3F3D56"/>
<path d="M366.51 33.0745L216.369 100.984L217.193 102.806L367.334 34.8968L366.51 33.0745Z" fill="#3F3D56"/>
</g>
<defs>
<clipPath id="clip0_990_2108">
<rect width="782.406" height="665.606" fill="white"/>
</clipPath>
</defs>
</svg>
